<svg version="1.0" xmlns="http://www.w3.org/2000/svg" preserveAspectRatio="xMidYMid meet" viewBox="218 131.87 322.87 267.98" width="53.87" height="43.67">  <g transform="translate(0.000000,460.000000) scale(0.100000,-0.100000)" fill="#9900ff" stroke="none"> <path d="M2444 3256 c-70 -71 -81 -76 -158 -76 -58 0 -76 -4 -89 -18 -19 -20 -23 -77 -7 -87 6 -3 10 -14 10 -24 0 -10 9 -26 20 -36 11 -10 20 -26 20 -36 0 -10 5 -21 10 -24 6 -4 10 -126 10 -334 0 -280 2 -330 15 -341 8 -7 15 -28 15 -46 0 -19 5 -34 10 -34 6 0 10 -47 10 -120 0 -73 4 -120 10 -120 6 0 10 -33 10 -79 0 -44 5 -83 10 -86 6 -3 10 -44 10 -90 0 -46 5 -87 10 -90 6 -4 10 -74 10 -179 0 -124 3 -175 13 -185 9 -9 12 -89 12 -329 0 -294 1 -317 18 -320 11 -2 17 3 17 16 0 10 20 40 44 65 34 36 51 47 75 47 17 0 31 4 31 9 0 5 40 10 89 13 49 2 95 9 103 15 7 6 54 13 103 15 57 2 102 10 124 21 28 14 63 17 188 17 95 0 153 4 153 10 0 6 33 10 79 10 44 0 82 4 85 9 3 4 55 12 116 16 60 3 112 11 116 16 3 5 52 9 109 9 58 0 107 4 110 10 3 6 48 10 101 10 56 0 94 4 94 10 0 6 57 10 150 10 93 0 150 4 150 10 0 13 217 13 225 0 3 -5 42 -10 85 -10 43 0 82 -4 85 -10 3 -6 19 -10 35 -10 16 0 32 -5 35 -10 3 -6 19 -10 35 -10 16 0 31 -4 34 -9 3 -5 42 -12 86 -16 44 -4 83 -11 86 -16 3 -5 23 -9 45 -9 21 0 47 -4 57 -9 9 -5 31 -15 49 -23 25 -9 33 -19 35 -42 2 -16 9 -31 16 -34 9 -3 12 23 12 107 0 67 4 111 10 111 13 0 13 33 0 46 -5 5 -12 97 -14 204 -3 107 -8 257 -11 333 -4 93 -3 137 4 137 8 0 11 87 11 269 0 169 4 272 10 276 6 4 10 97 10 245 0 148 -4 241 -10 245 -6 4 -10 65 -10 151 0 89 4 144 10 144 6 0 10 16 10 35 0 19 5 35 11 35 6 0 9 10 7 23 -3 21 -8 22 -88 25 -47 1 -94 7 -105 13 -36 18 -407 -1 -429 -22 -6 -5 -38 -9 -72 -9 -35 0 -66 -4 -69 -10 -3 -5 -20 -10 -36 -10 -17 0 -39 -4 -49 -10 -10 -5 -57 -13 -104 -16 -48 -4 -89 -11 -92 -16 -3 -4 -16 -8 -29 -8 -13 0 -27 -4 -30 -10 -3 -5 -21 -10 -40 -10 -18 0 -54 -9 -80 -20 -26 -11 -57 -20 -70 -20 -13 0 -26 -4 -29 -9 -4 -5 -25 -12 -49 -16 -69 -10 -231 -84 -276 -125 l-40 -37 -57 28 c-31 16 -62 29 -67 29 -6 0 -20 8 -31 19 -12 10 -39 27 -61 38 -22 11 -53 27 -70 36 -16 9 -57 30 -90 46 -33 17 -67 35 -75 40 -8 5 -26 13 -40 18 -14 6 -42 18 -63 27 -21 9 -44 16 -53 16 -8 0 -34 9 -56 20 -23 11 -52 20 -65 20 -12 0 -42 8 -65 19 -54 23 -109 41 -131 41 -16 0 -90 22 -132 39 -45 18 -93 31 -117 31 -14 0 -36 8 -49 19 -24 18 -24 18 -55 -13z m97 -36 c21 0 41 -4 44 -10 3 -5 17 -10 31 -10 13 0 32 -4 42 -10 28 -16 111 -40 137 -40 13 0 27 -4 30 -10 3 -5 17 -10 30 -10 14 0 40 -9 60 -20 20 -11 47 -20 60 -20 24 0 33 -3 82 -28 13 -7 32 -12 43 -12 11 0 28 -4 38 -10 9 -5 35 -16 57 -25 41 -17 54 -23 112 -56 18 -10 39 -19 45 -19 6 0 26 -11 44 -25 18 -14 37 -25 43 -25 15 0 82 -39 107 -61 11 -10 26 -19 32 -19 11 0 33 -10 72 -32 8 -4 24 -12 35 -17 12 -5 27 -16 34 -25 21 -26 39 -19 44 17 2 17 5 -7 5 -55 1 -48 7 -90 12 -93 6 -3 10 -21 10 -40 0 -19 5 -37 10 -40 6 -3 10 -28 10 -54 0 -27 7 -62 15 -77 12 -23 15 -70 15 -216 0 -114 4 -189 10 -193 6 -3 10 -42 10 -85 0 -43 5 -82 10 -85 6 -3 10 -30 10 -60 0 -30 5 -57 10 -60 6 -3 10 -17 10 -30 0 -13 5 -27 10 -30 6 -3 10 -21 10 -39 0 -17 4 -36 9 -42 5 -5 11 -100 13 -212 3 -184 2 -202 -14 -202 -9 0 -20 5 -23 10 -9 14 -657 14 -671 0 -6 -6 -51 -15 -100 -21 -152 -17 -219 -28 -339 -58 -101 -25 -118 -30 -128 -40 -6 -6 -19 -11 -29 -11 -16 0 -18 17 -22 193 -11 392 -28 642 -47 662 -5 5 -9 33 -9 63 0 29 -5 62 -10 72 -6 10 -13 60 -17 110 -3 50 -10 93 -15 96 -4 3 -8 46 -8 95 0 50 -4 98 -10 108 -13 25 -18 823 -5 811 5 -6 26 -10 46 -10z m-81 -25 c0 -8 -7 -15 -15 -15 -26 0 -18 20 13 29 1 1 2 -6 2 -14z m-150 -91 c0 -37 4 -47 20 -51 18 -5 20 -14 20 -99 0 -51 -4 -96 -10 -99 -6 -3 -10 -48 -10 -100 0 -52 -4 -97 -10 -100 -6 -4 -10 -75 -10 -181 0 -114 -3 -173 -10 -169 -6 4 -10 123 -10 323 0 328 -4 367 -43 410 -9 10 -17 24 -17 30 0 7 -5 21 -12 31 -17 27 8 50 55 51 l37 0 0 -46z m150 -323 c0 -236 4 -372 10 -376 6 -3 10 -50 10 -105 0 -54 4 -101 9 -104 5 -3 12 -49 16 -101 4 -52 11 -97 16 -101 5 -3 9 -34 9 -69 0 -35 5 -67 10 -70 6 -3 10 -25 10 -49 0 -23 4 -46 10 -52 5 -5 11 -86 14 -179 3 -94 9 -257 13 -362 7 -162 6 -194 -6 -198 -20 -8 -2 -23 34 -28 17 -2 0 -5 -37 -6 -37 0 -70 -5 -73 -11 -10 -16 -54 -11 -63 8 -5 9 -12 74 -15 143 -2 69 -10 135 -16 147 -7 13 -11 85 -11 189 0 93 -4 173 -9 178 -5 6 -12 46 -15 90 -15 210 -18 241 -27 250 -13 13 -12 655 1 655 6 0 10 40 10 100 0 60 4 100 10 100 6 0 10 47 10 121 0 112 -1 121 -20 126 -13 3 -20 14 -20 29 0 20 5 24 30 24 17 0 30 5 30 10 0 6 14 10 30 10 l30 0 0 -369z m2665 319 c3 -5 24 -10 45 -10 l39 0 6 -202 c3 -112 8 -414 10 -672 3 -258 10 -475 15 -481 8 -10 28 -342 22 -375 -1 -8 -5 -43 -9 -77 -6 -67 -17 -77 -46 -43 -17 20 -25 20 -375 16 -382 -5 -521 -12 -537 -27 -5 -5 -28 -9 -51 -9 -24 0 -45 -4 -48 -9 -6 -8 -31 -14 -119 -27 -20 -4 -40 -10 -43 -15 -3 -5 -12 -9 -20 -9 -11 0 -14 22 -14 121 0 78 -4 128 -12 142 -9 14 -15 94 -20 227 -7 205 -17 322 -38 435 -6 33 -13 77 -16 98 -4 20 -10 40 -15 43 -5 3 -9 24 -9 48 0 23 -4 46 -9 52 -5 5 -11 82 -13 171 -2 112 -7 166 -15 175 -7 6 -13 28 -13 48 0 36 -17 61 -50 73 -12 4 -11 6 5 13 11 4 29 16 39 26 11 10 25 18 32 18 7 0 32 10 56 21 64 32 78 37 131 44 26 3 47 10 47 16 0 5 14 9 30 9 17 0 40 5 53 12 50 25 58 28 97 28 22 0 40 5 40 10 0 6 16 10 35 10 19 0 35 4 35 9 0 4 37 11 82 14 45 4 86 11 92 17 5 5 32 10 58 10 26 0 48 5 48 10 0 6 30 10 70 10 40 0 70 4 70 10 0 6 22 10 49 10 28 0 53 5 56 10 3 6 50 10 105 10 55 0 102 -4 105 -10z m226 -73 c-7 -7 -11 -74 -11 -187 0 -97 -4 -180 -9 -186 -5 -5 -12 -49 -15 -99 -4 -49 -9 -128 -12 -175 -3 -47 -10 -89 -15 -94 -5 -6 -9 124 -9 340 0 294 3 358 16 397 11 34 21 47 35 47 10 0 20 6 20 13 1 6 4 -1 6 -17 3 -16 0 -33 -6 -39z m-71 37 c0 -3 -6 -15 -12 -27 -8 -13 -15 -83 -19 -177 l-5 -155 -2 183 c-2 176 -1 182 18 182 11 0 20 -3 20 -6z m-1455 -421 c16 -34 20 -108 6 -99 -11 7 -21 63 -26 141 -1 33 -1 44 2 25 2 -19 10 -49 18 -67z m1525 -417 c-6 -6 -10 -100 -10 -250 0 -192 -3 -238 -12 -228 -9 9 -14 54 -16 130 -2 64 -8 121 -13 126 -12 13 -12 146 1 146 6 0 10 25 10 55 0 30 5 55 10 55 6 0 10 38 10 94 0 53 4 98 10 101 6 3 11 45 12 93 2 48 4 -3 5 -112 2 -127 0 -203 -7 -210z m-1459 -100 c5 -6 9 -31 9 -57 0 -26 5 -51 10 -54 6 -3 10 -42 10 -85 0 -43 5 -82 10 -85 6 -3 9 -46 9 -98 -1 -51 -3 -83 -6 -72 -2 11 -8 29 -13 40 -11 23 -19 89 -26 200 -3 44 -10 84 -15 90 -5 5 -8 54 -7 110 1 55 3 82 5 60 3 -22 9 -44 14 -49z m1394 -343 c8 -19 23 -163 31 -303 3 -47 10 -89 15 -94 5 -6 9 -91 8 -190 0 -100 -3 -175 -6 -168 -7 17 -148 82 -179 82 -12 0 -26 5 -29 10 -3 6 -25 10 -48 10 -23 1 -60 7 -82 15 -32 12 -122 15 -450 17 -225 1 -391 3 -367 5 23 2 42 8 42 14 0 5 23 9 50 9 28 0 50 5 50 10 0 6 33 10 79 10 44 0 83 5 86 10 4 6 132 10 350 10 334 0 345 -1 355 -20 8 -15 21 -20 49 -20 l38 0 6 77 c3 43 11 79 16 81 12 4 15 55 4 66 -5 4 -13 80 -19 169 -7 89 -15 174 -19 190 -8 30 8 38 20 10z m-1400 -663 c3 -5 19 -10 36 -10 22 0 29 -5 29 -20 0 -19 -10 -20 -437 -24 -449 -4 -573 -10 -608 -26 -11 -5 -31 -11 -45 -12 -14 -2 -24 -9 -22 -16 1 -9 -19 -12 -74 -12 -47 0 -73 4 -69 10 3 6 17 10 30 10 13 0 27 5 30 10 3 6 24 10 45 10 21 0 42 5 45 10 3 6 24 10 45 10 21 0 42 5 45 10 3 6 33 10 65 10 32 0 61 4 64 8 3 5 45 12 93 15 48 4 89 11 91 17 5 14 628 14 637 0z m1080 1 c3 -5 31 -12 63 -16 31 -3 65 -10 74 -15 10 -6 29 -10 43 -10 13 0 40 -9 60 -20 20 -11 41 -20 48 -20 7 0 25 -11 41 -25 16 -14 33 -25 38 -25 4 0 8 -36 8 -80 0 -77 -1 -80 -20 -70 -11 5 -29 15 -40 20 -11 6 -38 10 -59 10 -22 0 -42 4 -45 9 -3 4 -38 11 -78 15 -70 6 -124 19 -160 37 -10 5 -29 9 -42 9 -14 0 -28 5 -31 10 -3 6 -42 10 -85 10 -43 0 -82 5 -85 10 -4 6 -58 10 -130 10 -72 0 -126 -4 -130 -10 -4 -6 -67 -10 -155 -10 -88 0 -151 -4 -155 -10 -3 -6 -43 -9 -88 -9 -45 1 -68 4 -52 6 17 3 34 9 40 14 5 5 24 9 42 9 36 0 45 19 13 27 -28 7 -25 23 5 23 14 0 25 5 25 10 0 6 18 10 39 10 22 0 43 5 46 10 4 6 110 10 285 10 175 0 281 -4 285 -10 3 -5 26 -10 50 -10 24 0 47 -4 50 -10 3 -5 19 -10 35 -10 16 0 31 -4 34 -9 3 -5 27 -12 52 -16 25 -3 62 -15 80 -26 19 -10 41 -19 49 -19 9 0 23 -4 33 -9 9 -5 31 -14 47 -21 17 -7 52 -23 79 -37 50 -25 68 -24 50 4 -12 19 -22 25 -89 54 -27 11 -58 25 -67 30 -10 5 -24 9 -33 9 -8 0 -29 8 -47 19 -18 10 -55 21 -80 25 -26 4 -50 11 -53 17 -4 5 -19 9 -34 9 -15 0 -31 4 -36 9 -19 18 -115 23 -405 23 -293 0 -384 -5 -407 -24 -15 -12 -73 11 -73 29 0 15 26 17 35 3 9 -15 78 -13 73 3 -3 6 -13 14 -24 15 -10 2 -23 8 -28 13 -6 5 174 9 446 9 271 0 459 -4 463 -9z m-995 -90 c0 -18 -106 -24 -567 -27 -317 -3 -473 -1 -473 6 0 6 31 10 74 10 41 0 78 5 81 10 8 13 885 14 885 1z m57 3 c-3 -3 -12 -4 -19 -1 -8 3 -5 6 6 6 11 1 17 -2 13 -5z m-607 -76 c-180 -21 -321 -30 -549 -34 -135 -3 -250 -9 -256 -14 -14 -12 -165 -26 -165 -16 0 16 30 36 54 36 14 0 26 5 26 10 0 6 30 10 70 10 40 0 70 4 70 10 0 7 143 9 413 8 291 -1 390 -4 337 -10z m494 -3 c-10 -8 -35 -15 -54 -15 -20 0 -40 -4 -45 -9 -6 -5 -32 -12 -60 -15 -27 -3 -111 -12 -185 -21 -200 -24 -538 -53 -705 -61 -60 -3 -114 -9 -120 -15 -5 -5 -28 -9 -51 -9 -23 0 -55 -7 -70 -15 -17 -8 -55 -15 -90 -15 -64 0 -80 -6 -64 -25 7 -8 0 -20 -20 -40 l-30 -29 0 41 c0 22 3 60 6 85 l6 45 102 7 c55 3 103 11 104 16 2 6 95 10 242 10 149 0 241 4 245 10 4 6 55 10 120 10 65 0 116 4 120 10 3 6 40 10 81 10 43 0 74 4 74 10 0 6 35 10 85 10 50 0 85 4 85 10 0 6 47 10 122 10 109 0 120 -2 102 -15z"></path> <path d="M2886 2609 c-24 -69 -30 -155 -33 -489 -3 -252 0 -371 7 -386 8 -13 9 -57 6 -125 -12 -208 -12 -262 2 -266 9 -4 12 15 12 69 0 41 5 79 11 85 7 7 8 52 5 132 -3 66 -9 175 -12 241 -6 137 1 156 46 133 15 -7 35 -22 45 -33 10 -11 22 -20 27 -20 5 0 28 -13 51 -28 23 -15 65 -39 92 -52 28 -14 54 -30 58 -37 4 -7 13 -13 19 -13 6 0 27 -12 47 -27 35 -27 52 -38 116 -72 17 -9 47 -29 66 -44 20 -15 39 -27 43 -27 4 0 26 -13 49 -28 23 -16 49 -32 57 -35 8 -4 29 -16 45 -26 38 -25 45 -25 45 -2 0 12 -15 27 -42 41 -24 12 -62 35 -86 51 -24 16 -46 29 -50 29 -4 0 -23 13 -42 30 -19 16 -41 29 -48 30 -7 0 -28 10 -45 23 -18 12 -41 28 -52 35 -65 41 -81 52 -95 65 -8 7 -44 28 -80 46 -36 17 -83 44 -106 59 -22 15 -55 36 -73 48 -24 16 -29 23 -19 31 21 16 80 43 95 43 7 0 13 3 13 8 0 7 21 18 140 77 92 45 134 69 151 87 9 10 21 18 28 18 6 0 11 4 11 9 0 5 16 12 36 16 44 8 72 31 56 47 -8 8 -21 6 -45 -6 -19 -9 -41 -16 -49 -16 -8 0 -33 -16 -57 -36 -38 -33 -225 -137 -358 -199 -28 -13 -54 -29 -58 -34 -3 -6 -13 -11 -21 -11 -12 0 -14 34 -14 209 0 116 4 212 9 215 14 9 25 126 12 139 -7 7 -12 6 -15 -4z"></path> </g> </svg>